<svg xmlns="http://www.w3.org/2000/svg" version="1.1" xmlns:xlink="http://www.w3.org/1999/xlink" xmlns:svgjs="http://svgjs.dev/svgjs" width="1440" height="560" preserveAspectRatio="none" viewBox="0 0 1440 560"><g mask="url(&quot;#SvgjsMask1002&quot;)" fill="none"><rect width="1440" height="560" x="0" y="0" fill="rgba(10, 11, 13, 1)"></rect><path d="M0 14.29C0.73 5.38 2.74 0.89 11.48 0C72.74 -6.25 75.74 0 140 0C206.44 0 217.71 -13.79 272.88 0C287.71 3.71 270.3 35 280 35C294.86 35 296.93 6.27 322 0C366.93 -11.23 371 0 420 0C490 0 490 0 560 0C598.62 0 611.96 -21.91 637.24 0C681.96 38.75 673.65 121.33 700 121.33C724.6 121.33 700.06 33.87 739.14 0C770.06 -26.8 789.57 0 840 0C910 0 910 0 980 0C1032.5 0 1033.77 -5.85 1085 0C1103.77 2.15 1101.85 9.69 1120 16C1189.35 40.12 1188.35 51.53 1260 60.87C1328.35 69.78 1346.72 74.6 1400 52.5C1420.11 44.16 1386.87 7.46 1406.77 0C1456.87 -18.79 1506.96 -33.58 1540 0C1573.58 34.13 1555.42 81.45 1540 135.41C1535.42 151.45 1500 136.4 1500 140C1500 143.69 1535.18 133.14 1540 150C1555.18 203.14 1540 215 1540 280C1540 336.88 1545.46 338.22 1540 393.75C1538.58 408.22 1526.23 408.31 1526.23 420C1526.23 426.96 1539.17 422.62 1540 431.05C1546.06 492.62 1571.41 526.94 1540 560C1510.16 591.41 1474.57 568.78 1417.5 560C1404.57 558.01 1409.61 538.46 1400 538.46C1388.79 538.46 1391.14 557.65 1375.86 560C1321.14 568.42 1317.93 560 1260 560C1190 560 1190 560 1120 560C1050 560 1050 560 980 560C910 560 910 560 840 560C770 560 770 560 700 560C636.37 560 634.37 565.14 572.73 560C564.37 559.3 568.04 548.33 560 548.33C529.86 548.33 528.47 557.32 496.36 560C458.47 563.16 458.18 560 420 560C350 560 350 560 280 560C210 560 210 560 140 560C70 560 35 595 0 560C-35 525 0 490 0 420C0 359.21 -7.97 355.78 0 298.42C1.75 285.78 19.44 288.6 19.44 280C19.44 272.25 1.57 276.98 0 265.71C-8.15 206.98 0 202.86 0 140C0 77.14 -5.01 75.38 0 14.29" stroke="rgba(255, 255, 255, 0.58)" stroke-width="2"></path><path d="M280 183.45C240.64 185.73 225.1 231.73 225.1 280C225.1 328.27 240.78 374.65 280 376.55C338.23 379.38 349.78 332.63 420 289.46C428.31 284.35 437.07 285.06 437.07 280C437.07 274.69 428.72 274.07 420 268.71C350.18 225.79 338.09 180.09 280 183.45" stroke="rgba(255, 255, 255, 0.58)" stroke-width="2"></path><path d="M840 359.55C807.88 371.22 795.67 391.38 795.67 420C795.67 444.14 811.33 458.03 840 465.08C903.49 480.68 919.62 481.72 980 465.29C1002.45 459.18 1005.67 443.61 1005.67 420C1005.67 387.48 1008.04 363.27 980 353.04C925.2 333.05 900.05 337.74 840 359.55" stroke="rgba(255, 255, 255, 0.58)" stroke-width="2"></path><path d="M0 85.71C23.04 38.85 26.35 26.02 68.85 0C96.35 -16.84 104.43 0 140 0C176.78 0 213.56 -17.96 213.56 0C213.56 29.21 181.21 51.72 140 94.35C113.55 121.72 109.49 117.69 78.24 140C39.49 167.66 24.92 194.29 0 194.29C-14.2 194.29 0 167.14 0 140C0 112.85 -11.38 108.85 0 85.71" stroke="rgba(255, 255, 255, 0.58)" stroke-width="2"></path><path d="M326.67 140C326.67 97.68 368.12 87.81 420 50.4C465.19 17.81 468.86 18.7 520.8 0C538.86 -6.5 540.4 0 560 0C568.45 0 573.68 -7.21 576.9 0C604.99 62.79 584.61 81.88 622.63 140C646.16 175.98 661.03 188.2 700 188.2C740.55 188.2 766.17 177.99 781.67 140C804.56 83.89 756.68 48.23 776.77 0C785.84 -21.77 808.38 0 840 0C893.45 0 897.96 -11.16 946.91 0C967.96 4.8 960.98 19.19 980 31.93C1047.53 77.19 1049.36 75.11 1120 116C1142.7 129.14 1166.67 118.49 1166.67 140C1166.67 200.49 1167.31 252.61 1120 280C1073.97 306.65 1050 248.07 980 248.07C910 248.07 910 264.03 840 280C840 280 840 280 840 280C788.66 350 737.33 353.71 737.33 420C737.33 475.91 779.77 487.13 840 524.41C892.87 557.13 963.53 550.93 963.53 560C963.53 568.72 901.76 560 840 560C770 560 770 560 700 560C668.18 560 663 573.32 636.36 560C593 538.32 605.5 498.88 560 490C497.32 477.77 480.87 535.34 420 517.78C359.53 500.34 317.33 466.84 317.33 420C317.33 376.33 365.62 373.87 420 336.76C468.18 303.87 522.44 310.39 522.44 280C522.44 248.14 469.91 247.95 420 212.26C372.03 177.95 326.67 178.61 326.67 140" stroke="rgba(255, 255, 255, 0.58)" stroke-width="2"></path><path d="M1540 78.03C1517.59 78.03 1463.23 22.93 1463.23 0C1463.23 -16.08 1520.96 -19.35 1540 0C1559.35 19.67 1555.97 78.03 1540 78.03" stroke="rgba(255, 255, 255, 0.58)" stroke-width="2"></path><path d="M116.67 280C132.33 263.16 129.71 240 140 240C149.61 240 146.16 261.02 156.47 280C195.03 351.02 210.99 345.24 237.74 420C261.09 485.24 283.44 521.66 256.67 560C234.57 591.66 198.34 560 140 560C70 560 35 595 0 560C-35 525 0 490 0 420C0 405.26 -9.04 401.38 0 390.53C49.3 331.38 62.33 338.43 116.67 280" stroke="rgba(255, 255, 255, 0.58)" stroke-width="2"></path><path d="M1271.67 280C1335.44 254.33 1335.12 231.53 1400 230.32C1469.29 229.03 1472.3 250.98 1540 275C1542.3 275.82 1540 277.5 1540 280C1540 282.19 1540.99 282.43 1540 284.38C1505.41 352.43 1468.85 359.61 1468.85 420C1468.85 455.98 1521.36 440.43 1540 477.11C1556.94 510.43 1560.19 538.75 1540 560C1520.82 580.19 1492.59 576.88 1461.25 560C1422.59 539.19 1433.65 484.62 1400 484.62C1360.78 484.62 1362.49 534.71 1315.52 560C1292.49 572.4 1287.76 560 1260 560C1190 560 1190 560 1120 560C1059.34 560 1010.99 590.79 998.67 560C982.99 520.79 1033.3 490.85 1064 420C1093.96 350.85 1069.21 314.55 1120 280C1167.21 247.88 1190.8 286.67 1260 286.67C1266.64 286.67 1265.44 282.51 1271.67 280" stroke="rgba(255, 255, 255, 0.58)" stroke-width="2"></path><path d="M140 18.26C133.04 18.26 126.23 5.7 126.23 0C126.23 -3.43 133.12 0 140 0C147.12 0 154.24 -3.48 154.24 0C154.24 5.65 147.05 18.26 140 18.26" stroke="rgba(255, 255, 255, 0.58)" stroke-width="2"></path><path d="M399.58 140C399.58 130.74 407.43 120.4 420 120.4C450.3 120.4 485.33 131.08 485.33 140C485.33 148.79 450.97 155.81 420 155.81C408.1 155.81 399.58 148.45 399.58 140" stroke="rgba(255, 255, 255, 0.58)" stroke-width="2"></path><path d="M840 88.15C823.37 88.15 814.41 34.47 814.41 0C814.41 -9.61 827.2 0 840 0C861.63 0 883.27 -13.48 883.27 0C883.27 30.59 857.8 88.15 840 88.15" stroke="rgba(255, 255, 255, 0.58)" stroke-width="2"></path><path d="M888.28 140C888.28 116.66 935.51 93.33 980 93.33C1016.37 93.33 1050 116.66 1050 140C1050 163.33 1016.37 186.67 980 186.67C935.51 186.67 888.28 163.33 888.28 140" stroke="rgba(255, 255, 255, 0.58)" stroke-width="2"></path><path d="M1540 20.66C1534.07 20.66 1519.68 6.07 1519.68 0C1519.68 -4.26 1534.96 -5.12 1540 0C1545.12 5.21 1544.23 20.66 1540 20.66" stroke="rgba(255, 255, 255, 0.58)" stroke-width="2"></path><path d="M627.59 280C627.59 254.77 664.97 245.57 700 245.57C727.43 245.57 752.5 256.78 752.5 280C752.5 317.74 729.56 367.5 700 367.5C667.1 367.5 627.59 315.74 627.59 280" stroke="rgba(255, 255, 255, 0.58)" stroke-width="2"></path><path d="M82.07 420C98.95 385.66 114.98 365.81 140 365.81C159.8 365.81 164.94 390.02 171.7 420C186.82 487.11 195.84 506.62 183.75 560C179.99 576.62 161.88 560 140 560C92.28 560 56.05 587.79 44.55 560C27.09 517.79 51.23 482.75 82.07 420" stroke="rgba(255, 255, 255, 0.58)" stroke-width="2"></path><path d="M375.67 420C375.67 401.14 393.31 389.38 420 384.05C485.47 370.96 494.19 370.71 560 383.16C589.19 388.68 610 406.72 610 420C610 430.98 585.06 426.1 560 431.67C490.06 447.21 484.58 466.31 420 462.22C392.41 460.47 375.67 440.23 375.67 420" stroke="rgba(255, 255, 255, 0.58)" stroke-width="2"></path><path d="M1330 420C1330 407.44 1372.62 383.16 1400 383.16C1413.36 383.16 1411.48 403.09 1411.48 420C1411.48 426.9 1407.41 430.77 1400 430.77C1366.67 430.77 1330 431.25 1330 420" stroke="rgba(255, 255, 255, 0.58)" stroke-width="2"></path><path d="M1505 560C1505 549.09 1529.85 523.16 1540 523.16C1547.35 523.16 1548.97 550.55 1540 560C1531.47 568.97 1505 567.51 1505 560" stroke="rgba(255, 255, 255, 0.58)" stroke-width="2"></path></g><defs><mask id="SvgjsMask1002"><rect width="1440" height="560" fill="#ffffff"></rect></mask></defs></svg>